<?xml version="1.0"?>
<svg xmlns="http://www.w3.org/2000/svg" viewBox="0 0 760 220" width="760" height="220">
  <title>Discover Weimar — Stadtführung Andrea Otto</title>
  <desc>Primary logo. All elements are vector paths (wordmark outlined from Archivo 800 / Space Grotesk 700). Fully font-independent — renders identically everywhere, incl. Illustrator/Inkscape.</desc>
  <g transform="translate(20,30) scale(1.4545)">
    <path d="M50 4 C26 4 8 22 8 45 C8 73 38 92 50 106 C62 92 92 73 92 45 C92 22 74 4 50 4 Z" fill="#c7943c"></path>
    <circle cx="50" cy="44" r="23" fill="#ffffff"></circle>
    <g transform="translate(28.5,17) scale(0.43)">
      <path d="M50.00 62.00 L18.64 58.70 L16.69 57.19 L14.77 55.52 L12.89 53.68 L11.78 51.87 L11.89 50.31 L12.06 48.74 L12.30 47.17 L12.63 45.61 L13.04 44.06 L13.56 42.54 L14.18 41.05 L14.91 39.62 L15.74 38.24 L16.68 36.94 L17.72 35.71 L18.84 34.56 L20.05 33.50 L21.33 32.53 L22.67 31.64 L24.05 30.84 L25.46 30.11 L26.90 29.46 L28.35 28.86 L29.80 28.32 L31.25 27.81 L32.69 27.33 L34.13 26.87 L35.55 26.42 L36.96 25.96 L38.37 25.51 L39.77 25.05 L41.18 24.58 L42.60 24.11 L44.46 26.36 L46.13 28.71 L47.61 31.11 L48.90 33.53 L50.00 36.00 L51.12 32.88 L52.49 29.83 L54.08 26.87 L55.91 24.02 L57.94 21.37 L59.53 21.55 L61.11 21.85 L62.67 22.27 L64.18 22.81 L65.65 23.47 L67.07 24.23 L68.42 25.09 L69.72 26.04 L70.94 27.07 L72.11 28.16 L73.21 29.31 L74.25 30.48 L75.25 31.69 L76.20 32.91 L77.11 34.13 L78.01 35.35 L78.88 36.57 L79.75 37.77 L80.61 38.98 L81.48 40.17 L82.36 41.36 L83.24 42.56 L84.13 43.77 L85.01 45.00 L85.89 46.26 L86.75 47.54 L87.58 48.87 L88.38 50.23 L89.11 51.64 L88.61 53.35 L87.29 55.14 L85.84 56.83 L84.28 58.40 Z" fill="#c7943c"></path>
      <path d="M50 62 C49.3 73 49.7 85 50 97" fill="none" stroke="#c7943c" stroke-width="3.4" stroke-linecap="round"></path>
    </g>
  </g>
  <path d="M221.26 92.77L221.26 92.77Q216.97 92.77 213.83 90.85Q210.70 88.93 209.03 85.02Q207.37 81.12 207.37 75.04L207.37 75.04Q207.37 69.09 209.06 65.22Q210.76 61.34 213.83 59.42Q216.90 57.50 221.06 57.50L221.06 57.50Q223.05 57.50 224.87 57.95Q226.70 58.40 228.14 59.36Q229.58 60.32 230.60 61.73L230.60 61.73L230.98 61.73L230.98 45.66L241.48 45.66L241.48 92L232.90 92L232.14 87.33L231.69 87.33Q229.96 90.08 227.27 91.42Q224.58 92.77 221.26 92.77ZM224.52 84.58L224.52 84.58Q226.82 84.58 228.26 83.52Q229.70 82.46 230.38 80.51Q231.05 78.56 231.05 75.94L231.05 75.94L231.05 74.40Q231.05 72.48 230.66 70.88Q230.28 69.28 229.51 68.13Q228.74 66.98 227.50 66.34Q226.25 65.70 224.52 65.70L224.52 65.70Q222.15 65.70 220.71 66.66Q219.27 67.62 218.63 69.47Q217.99 71.33 217.99 74.08L217.99 74.08L217.99 76.32Q217.99 79.01 218.63 80.86Q219.27 82.72 220.71 83.65Q222.15 84.58 224.52 84.58ZM258.08 53.73L247.58 53.73L247.58 45.66L258.08 45.66L258.08 53.73ZM258.08 92L247.58 92L247.58 58.27L258.08 58.27L258.08 92ZM278.58 92.77L278.58 92.77Q275.25 92.77 272.34 92.06Q269.42 91.36 267.22 90.02Q265.01 88.67 263.76 86.69Q262.51 84.70 262.51 82.08L262.51 82.08Q262.51 81.82 262.51 81.60Q262.51 81.38 262.58 81.18L262.58 81.18L272.50 81.18Q272.50 81.31 272.50 81.47Q272.50 81.63 272.50 81.76L272.50 81.76Q272.56 83.17 273.42 84.10Q274.29 85.02 275.70 85.44Q277.10 85.86 278.77 85.86L278.77 85.86Q279.98 85.86 281.36 85.60Q282.74 85.34 283.70 84.70Q284.66 84.06 284.66 82.85L284.66 82.85Q284.66 81.50 283.47 80.80Q282.29 80.10 280.34 79.62Q278.38 79.14 276.14 78.69L276.14 78.69Q273.90 78.18 271.63 77.54Q269.36 76.90 267.47 75.78Q265.58 74.66 264.43 72.86Q263.28 71.07 263.28 68.32L263.28 68.32Q263.28 65.38 264.53 63.30Q265.78 61.22 267.95 59.94Q270.13 58.66 272.98 58.08Q275.82 57.50 279.02 57.50L279.02 57.50Q281.97 57.50 284.62 58.08Q287.28 58.66 289.42 59.84Q291.57 61.02 292.78 62.85Q294 64.67 294 67.10L294 67.10Q294 67.42 293.97 67.78Q293.94 68.13 293.94 68.26L293.94 68.26L284.08 68.26L284.08 67.74Q284.08 66.66 283.38 65.95Q282.67 65.25 281.46 64.83Q280.24 64.42 278.77 64.42L278.77 64.42Q277.81 64.42 276.88 64.58Q275.95 64.74 275.18 65.02Q274.42 65.31 273.94 65.82Q273.46 66.34 273.46 67.10L273.46 67.10Q273.46 68.06 274.29 68.67Q275.12 69.28 276.56 69.66Q278 70.05 279.73 70.50L279.73 70.50Q282.10 71.01 284.72 71.55Q287.34 72.10 289.68 73.09Q292.02 74.08 293.46 76.03Q294.90 77.98 294.90 81.38L294.90 81.38Q294.90 84.58 293.62 86.78Q292.34 88.99 290.10 90.30Q287.86 91.62 284.91 92.19Q281.97 92.77 278.58 92.77ZM315.20 92.77L315.20 92.77Q309.64 92.77 305.73 90.85Q301.83 88.93 299.75 84.99Q297.67 81.06 297.67 75.10L297.67 75.10Q297.67 69.15 299.78 65.22Q301.89 61.28 305.80 59.36Q309.70 57.44 315.20 57.44L315.20 57.44Q318.79 57.44 321.83 58.27Q324.87 59.10 327.14 60.83Q329.41 62.56 330.63 65.18Q331.84 67.81 331.84 71.46L331.84 71.46L321.54 71.46Q321.54 69.28 320.80 67.87Q320.07 66.46 318.66 65.76Q317.25 65.06 315.14 65.06L315.14 65.06Q312.71 65.06 311.20 66.08Q309.70 67.10 309.00 69.09Q308.29 71.07 308.29 74.02L308.29 74.02L308.29 76.32Q308.29 79.20 309.00 81.18Q309.70 83.17 311.30 84.16Q312.90 85.15 315.40 85.15L315.40 85.15Q317.57 85.15 319.01 84.48Q320.45 83.81 321.22 82.37Q321.99 80.93 321.99 78.75L321.99 78.75L331.84 78.75Q331.84 82.27 330.63 84.93Q329.41 87.58 327.17 89.31Q324.93 91.04 321.86 91.90Q318.79 92.77 315.20 92.77ZM352.86 92.77L352.86 92.77Q347.22 92.77 343.22 90.85Q339.22 88.93 337.08 84.99Q334.94 81.06 334.94 75.10L334.94 75.10Q334.94 69.15 337.08 65.25Q339.22 61.34 343.22 59.42Q347.22 57.50 352.86 57.50L352.86 57.50Q358.55 57.50 362.55 59.42Q366.55 61.34 368.70 65.25Q370.84 69.15 370.84 75.10L370.84 75.10Q370.84 81.06 368.70 84.99Q366.55 88.93 362.55 90.85Q358.55 92.77 352.86 92.77ZM352.86 85.15L352.86 85.15Q355.48 85.15 357.11 84.13Q358.74 83.10 359.48 81.15Q360.22 79.20 360.22 76.32L360.22 76.32L360.22 73.95Q360.22 71.07 359.48 69.09Q358.74 67.10 357.11 66.11Q355.48 65.12 352.86 65.12L352.86 65.12Q350.30 65.12 348.66 66.11Q347.03 67.10 346.30 69.09Q345.56 71.07 345.56 73.95L345.56 73.95L345.56 76.32Q345.56 79.20 346.30 81.15Q347.03 83.10 348.66 84.13Q350.30 85.15 352.86 85.15ZM395.12 92L384.11 92L371.44 58.27L382.64 58.27L386.92 71.14Q387.24 72.10 387.76 73.92Q388.27 75.74 388.84 77.70Q389.42 79.65 389.87 81.31L389.87 81.31L390.25 81.31Q390.70 79.78 391.24 77.86Q391.79 75.94 392.30 74.11Q392.81 72.29 393.20 71.14L393.20 71.14L397.42 58.27L407.85 58.27L395.12 92ZM426.62 92.77L426.62 92.77Q420.86 92.77 416.83 90.88Q412.80 88.99 410.66 85.09Q408.51 81.18 408.51 75.10L408.51 75.10Q408.51 69.15 410.62 65.25Q412.74 61.34 416.70 59.42Q420.67 57.50 426.24 57.50L426.24 57.50Q431.74 57.50 435.55 59.36Q439.36 61.22 441.34 65.06Q443.33 68.90 443.33 74.98L443.33 74.98L443.33 77.22L419.14 77.22Q419.14 79.90 419.90 81.76Q420.67 83.62 422.27 84.58Q423.87 85.54 426.56 85.54L426.56 85.54Q428.16 85.54 429.38 85.15Q430.59 84.77 431.42 84.03Q432.26 83.30 432.70 82.27Q433.15 81.25 433.15 79.97L433.15 79.97L443.33 79.97Q443.33 83.04 442.21 85.44Q441.09 87.84 438.91 89.47Q436.74 91.10 433.63 91.94Q430.53 92.77 426.62 92.77ZM419.20 71.39L419.20 71.39L432.64 71.39Q432.64 69.73 432.22 68.48Q431.81 67.23 431.01 66.40Q430.21 65.57 429.09 65.15Q427.97 64.74 426.50 64.74L426.50 64.74Q424.19 64.74 422.66 65.50Q421.12 66.27 420.29 67.74Q419.46 69.22 419.20 71.39ZM458.32 92L447.83 92L447.83 58.27L456.47 58.27L457.24 63.46L457.68 63.46Q458.45 61.73 459.57 60.35Q460.69 58.98 462.32 58.21Q463.96 57.44 465.94 57.44L465.94 57.44Q467.09 57.44 468.05 57.66Q469.01 57.89 469.46 58.14L469.46 58.14L469.46 67.30L466.13 67.30Q464.15 67.30 462.64 67.84Q461.14 68.38 460.18 69.50Q459.22 70.62 458.77 72.22Q458.32 73.82 458.32 75.94L458.32 75.94L458.32 92Z" fill="#1c1916"></path>
  <path d="M226.89 144L216.39 144L205.06 110.27L216.26 110.27L219.78 124.22Q220.10 125.31 220.46 126.88Q220.81 128.45 221.16 129.92Q221.51 131.39 221.77 132.35L221.77 132.35L222.15 132.35Q222.54 130.94 222.86 129.47Q223.18 128 223.53 126.59Q223.88 125.18 224.14 124.16L224.14 124.16L227.59 110.27L238.34 110.27L241.86 124.22Q242.12 125.12 242.44 126.59Q242.76 128.06 243.14 129.60Q243.53 131.14 243.78 132.35L243.78 132.35L244.23 132.35Q244.42 131.26 244.78 129.86Q245.13 128.45 245.51 126.94Q245.90 125.44 246.15 124.35L246.15 124.35L249.74 110.27L259.91 110.27L248.58 144L238.09 144L234.57 130.50Q234.31 129.34 233.93 127.87Q233.54 126.40 233.22 124.99Q232.90 123.58 232.65 122.56L232.65 122.56L232.39 122.56Q232.26 123.26 231.98 124.48Q231.69 125.70 231.34 127.23Q230.98 128.77 230.47 130.43L230.47 130.43L226.89 144ZM278.56 144.77L278.56 144.77Q272.80 144.77 268.76 142.88Q264.73 140.99 262.59 137.09Q260.44 133.18 260.44 127.10L260.44 127.10Q260.44 121.15 262.56 117.25Q264.67 113.34 268.64 111.42Q272.60 109.50 278.17 109.50L278.17 109.50Q283.68 109.50 287.48 111.36Q291.29 113.22 293.28 117.06Q295.26 120.90 295.26 126.98L295.26 126.98L295.26 129.22L271.07 129.22Q271.07 131.90 271.84 133.76Q272.60 135.62 274.20 136.58Q275.80 137.54 278.49 137.54L278.49 137.54Q280.09 137.54 281.31 137.15Q282.52 136.77 283.36 136.03Q284.19 135.30 284.64 134.27Q285.08 133.25 285.08 131.97L285.08 131.97L295.26 131.97Q295.26 135.04 294.14 137.44Q293.02 139.84 290.84 141.47Q288.67 143.10 285.56 143.94Q282.46 144.77 278.56 144.77ZM271.13 123.39L271.13 123.39L284.57 123.39Q284.57 121.73 284.16 120.48Q283.74 119.23 282.94 118.40Q282.14 117.57 281.02 117.15Q279.90 116.74 278.43 116.74L278.43 116.74Q276.12 116.74 274.59 117.50Q273.05 118.27 272.22 119.74Q271.39 121.22 271.13 123.39ZM310.26 105.73L299.76 105.73L299.76 97.66L310.26 97.66L310.26 105.73ZM310.26 144L299.76 144L299.76 110.27L310.26 110.27L310.26 144ZM326.79 144L316.29 144L316.29 110.27L324.93 110.27L325.70 115.07L326.15 115.07Q327.30 113.34 328.93 112.06Q330.56 110.78 332.55 110.14Q334.53 109.50 336.77 109.50L336.77 109.50Q340.23 109.50 342.66 110.88Q345.09 112.26 346.37 115.07L346.37 115.07L346.82 115.07Q347.97 113.34 349.60 112.06Q351.24 110.78 353.25 110.14Q355.27 109.50 357.44 109.50L357.44 109.50Q360.96 109.50 363.40 110.82Q365.83 112.13 367.14 114.78Q368.45 117.44 368.45 121.54L368.45 121.54L368.45 144L357.96 144L357.96 123.14Q357.96 121.73 357.64 120.74Q357.32 119.74 356.74 119.07Q356.16 118.40 355.27 118.08Q354.37 117.76 353.35 117.76L353.35 117.76Q351.68 117.76 350.37 118.62Q349.06 119.49 348.36 120.93Q347.65 122.37 347.65 124.29L347.65 124.29L347.65 144L337.16 144L337.16 123.14Q337.16 121.73 336.84 120.74Q336.52 119.74 335.94 119.07Q335.36 118.40 334.47 118.08Q333.57 117.76 332.55 117.76L332.55 117.76Q330.88 117.76 329.57 118.62Q328.26 119.49 327.52 120.93Q326.79 122.37 326.79 124.29L326.79 124.29L326.79 144ZM383.77 144.77L383.77 144.77Q381.66 144.77 379.64 144.35Q377.62 143.94 375.99 142.88Q374.36 141.82 373.40 139.97Q372.44 138.11 372.44 135.30L372.44 135.30Q372.44 131.65 373.98 129.34Q375.51 127.04 378.42 125.73Q381.34 124.42 385.46 123.90Q389.59 123.39 394.71 123.39L394.71 123.39L394.71 121.28Q394.71 119.81 394.14 118.82Q393.56 117.82 392.44 117.28Q391.32 116.74 389.46 116.74L389.46 116.74Q387.80 116.74 386.55 117.12Q385.30 117.50 384.66 118.24Q384.02 118.98 384.02 120L384.02 120L384.02 120.58L373.78 120.58Q373.72 120.26 373.72 120.03Q373.72 119.81 373.72 119.42L373.72 119.42Q373.72 116.42 375.61 114.18Q377.50 111.94 381.02 110.72Q384.54 109.50 389.53 109.50L389.53 109.50Q394.20 109.50 397.69 110.66Q401.18 111.81 403.19 114.18Q405.21 116.54 405.21 120.38L405.21 120.38L405.21 134.78Q405.21 135.87 405.82 136.51Q406.42 137.15 407.32 137.15L407.32 137.15L409.50 137.15L409.50 143.62Q408.79 143.94 407.29 144.35Q405.78 144.77 403.67 144.77L403.67 144.77Q401.50 144.77 399.86 144.22Q398.23 143.68 397.18 142.69Q396.12 141.70 395.74 140.35L395.74 140.35L395.29 140.35Q394.07 141.63 392.44 142.66Q390.81 143.68 388.66 144.22Q386.52 144.77 383.77 144.77ZM387.67 137.54L387.67 137.54Q389.21 137.54 390.49 137.09Q391.77 136.64 392.70 135.84Q393.62 135.04 394.17 133.89Q394.71 132.74 394.71 131.39L394.71 131.39L394.71 129.15Q391.06 129.15 388.44 129.66Q385.82 130.18 384.41 131.26Q383 132.35 383 134.02L383 134.02Q383 135.23 383.61 136.03Q384.22 136.83 385.24 137.18Q386.26 137.54 387.67 137.54ZM422.38 144L411.88 144L411.88 110.27L420.52 110.27L421.29 115.46L421.74 115.46Q422.51 113.73 423.63 112.35Q424.75 110.98 426.38 110.21Q428.01 109.44 430.00 109.44L430.00 109.44Q431.15 109.44 432.11 109.66Q433.07 109.89 433.52 110.14L433.52 110.14L433.52 119.30L430.19 119.30Q428.20 119.30 426.70 119.84Q425.20 120.38 424.24 121.50Q423.28 122.62 422.83 124.22Q422.38 125.82 422.38 127.94L422.38 127.94L422.38 144Z" fill="#1c1916"></path>
  <path d="M211.33 178.20L211.33 178.20Q210.19 178.20 209.32 177.79Q208.46 177.38 207.97 176.63Q207.48 175.87 207.48 174.81L207.48 174.81L207.48 174.42L209.30 174.42L209.30 174.81Q209.30 175.69 209.84 176.13Q210.39 176.57 211.33 176.57L211.33 176.57Q212.28 176.57 212.75 176.19Q213.22 175.82 213.22 175.23L213.22 175.23Q213.22 174.82 212.99 174.57Q212.75 174.32 212.31 174.16Q211.87 174.00 211.24 173.86L211.24 173.86L210.92 173.79Q209.91 173.56 209.19 173.22Q208.47 172.88 208.09 172.32Q207.70 171.76 207.70 170.86L207.70 170.86Q207.70 169.96 208.13 169.33Q208.55 168.69 209.33 168.35Q210.11 168.00 211.16 168.00L211.16 168.00Q212.21 168.00 213.03 168.36Q213.85 168.72 214.31 169.43Q214.78 170.13 214.78 171.20L214.78 171.20L214.78 171.62L212.96 171.62L212.96 171.20Q212.96 170.64 212.75 170.29Q212.53 169.95 212.12 169.79Q211.72 169.63 211.16 169.63L211.16 169.63Q210.32 169.63 209.92 169.94Q209.52 170.26 209.52 170.80L209.52 170.80Q209.52 171.17 209.71 171.42Q209.90 171.67 210.28 171.84Q210.65 172.01 211.24 172.13L211.24 172.13L211.56 172.20Q212.61 172.43 213.39 172.78Q214.17 173.13 214.60 173.70Q215.04 174.28 215.04 175.17L215.04 175.17Q215.04 176.07 214.58 176.75Q214.13 177.43 213.29 177.81Q212.46 178.20 211.33 178.20ZM222.76 178L220.92 178L220.92 169.88L218.06 169.88L218.06 168.20L225.62 168.20L225.62 169.88L222.76 169.88L222.76 178ZM230.35 178L228.45 178L231.02 168.20L234.24 168.20L236.82 178L234.92 178L234.38 175.84L230.88 175.84L230.35 178ZM232.51 169.36L231.32 174.14L233.95 174.14L232.76 169.36L232.51 169.36ZM243.99 178L239.96 178L239.96 176.38L241.24 176.38L241.24 169.82L239.96 169.82L239.96 168.20L243.99 168.20Q245.96 168.20 246.99 169.20Q248.02 170.20 248.02 172.18L248.02 172.18L248.02 174.02Q248.02 176.00 246.99 177.00Q245.96 178 243.99 178L243.99 178ZM243.09 169.88L243.09 176.32L244.02 176.32Q245.14 176.32 245.65 175.73Q246.17 175.14 246.17 174.08L246.17 174.08L246.17 172.12Q246.17 171.04 245.65 170.46Q245.14 169.88 244.02 169.88L244.02 169.88L243.09 169.88ZM255.92 178L254.07 178L254.07 169.88L251.21 169.88L251.21 168.20L258.77 168.20L258.77 169.88L255.92 169.88L255.92 178ZM264.12 178L262.27 178L262.27 168.20L268.43 168.20L268.43 169.88L264.12 169.88L264.12 172.25L268.10 172.25L268.10 173.93L264.12 173.93L264.12 178ZM275.77 178.20L275.77 178.20Q274.56 178.20 273.70 177.75Q272.84 177.31 272.39 176.50Q271.93 175.68 271.93 174.56L271.93 174.56L271.93 168.20L273.78 168.20L273.78 174.61Q273.78 175.51 274.29 176.03Q274.80 176.54 275.77 176.54L275.77 176.54Q276.73 176.54 277.25 176.03Q277.76 175.51 277.76 174.61L277.76 174.61L277.76 168.20L279.60 168.20L279.60 174.56Q279.60 175.68 279.15 176.50Q278.69 177.31 277.83 177.75Q276.97 178.20 275.77 178.20ZM277.32 167.44L277.32 167.44Q276.85 167.44 276.52 167.14Q276.19 166.84 276.19 166.32L276.19 166.32Q276.19 165.81 276.52 165.50Q276.85 165.20 277.32 165.20L277.32 165.20Q277.81 165.20 278.13 165.50Q278.46 165.81 278.46 166.32L278.46 166.32Q278.46 166.84 278.13 167.14Q277.81 167.44 277.32 167.44ZM274.21 167.44L274.21 167.44Q273.74 167.44 273.41 167.14Q273.08 166.84 273.08 166.32L273.08 166.32Q273.08 165.81 273.41 165.50Q273.74 165.20 274.21 165.20L274.21 165.20Q274.70 165.20 275.03 165.50Q275.35 165.81 275.35 166.32L275.35 166.32Q275.35 166.84 275.03 167.14Q274.70 167.44 274.21 167.44ZM285.48 178L283.64 178L283.64 168.20L285.48 168.20L285.48 172.25L289.12 172.25L289.12 168.20L290.97 168.20L290.97 178L289.12 178L289.12 173.93L285.48 173.93L285.48 178ZM296.91 178L295.06 178L295.06 168.20L299.32 168.20Q300.24 168.20 300.93 168.52Q301.61 168.84 301.99 169.43Q302.37 170.02 302.37 170.82L302.37 170.82L302.37 170.99Q302.37 171.87 301.95 172.41Q301.53 172.96 300.91 173.21L300.91 173.21L300.91 173.46Q301.47 173.49 301.78 173.85Q302.09 174.21 302.09 174.79L302.09 174.79L302.09 178L300.24 178L300.24 175.06Q300.24 174.72 300.06 174.51Q299.89 174.30 299.48 174.30L299.48 174.30L296.91 174.30L296.91 178ZM296.91 169.88L296.91 172.62L299.12 172.62Q299.78 172.62 300.15 172.27Q300.52 171.91 300.52 171.32L300.52 171.32L300.52 171.18Q300.52 170.59 300.16 170.24Q299.79 169.88 299.12 169.88L299.12 169.88L296.91 169.88ZM309.93 178.20L309.93 178.20Q308.72 178.20 307.86 177.75Q307.00 177.31 306.55 176.50Q306.09 175.68 306.09 174.56L306.09 174.56L306.09 168.20L307.94 168.20L307.94 174.61Q307.94 175.51 308.45 176.03Q308.96 176.54 309.93 176.54L309.93 176.54Q310.89 176.54 311.41 176.03Q311.92 175.51 311.92 174.61L311.92 174.61L311.92 168.20L313.76 168.20L313.76 174.56Q313.76 175.68 313.31 176.50Q312.85 177.31 311.99 177.75Q311.13 178.20 309.93 178.20ZM319.62 178L317.80 178L317.80 168.20L321.31 168.20L323.26 176.74L323.51 176.74L323.51 168.20L325.33 168.20L325.33 178L321.81 178L319.87 169.46L319.62 169.46L319.62 178ZM332.80 178.20L332.80 178.20Q331.80 178.20 330.98 177.74Q330.16 177.29 329.68 176.41Q329.19 175.54 329.19 174.28L329.19 174.28L329.19 171.92Q329.19 170.03 330.26 169.02Q331.32 168.00 333.14 168.00L333.14 168.00Q334.95 168.00 335.93 168.96Q336.92 169.92 336.92 171.56L336.92 171.56L336.92 171.62L335.10 171.62L335.10 171.50Q335.10 170.99 334.88 170.57Q334.67 170.15 334.23 169.90Q333.80 169.66 333.14 169.66L333.14 169.66Q332.16 169.66 331.60 170.26Q331.04 170.86 331.04 171.90L331.04 171.90L331.04 174.30Q331.04 175.33 331.60 175.95Q332.16 176.57 333.17 176.57L333.17 176.57Q334.18 176.57 334.64 176.04Q335.10 175.51 335.10 174.70L335.10 174.70L335.10 174.56L332.78 174.56L332.78 172.99L336.92 172.99L336.92 178L335.21 178L335.21 177.06L334.96 177.06Q334.86 177.30 334.65 177.57Q334.43 177.83 333.99 178.01Q333.56 178.20 332.80 178.20ZM347.34 175.33L347.34 175.33Q346.76 175.33 346.38 174.96Q345.99 174.58 345.99 174.00L345.99 174.00Q345.99 173.41 346.38 173.04Q346.76 172.67 347.34 172.67L347.34 172.67Q347.90 172.67 348.27 173.04Q348.65 173.41 348.65 174.00L348.65 174.00Q348.65 174.58 348.27 174.96Q347.90 175.33 347.34 175.33ZM359.04 178L357.14 178L359.71 168.20L362.93 168.20L365.51 178L363.60 178L363.07 175.84L359.57 175.84L359.04 178ZM361.20 169.36L360.01 174.14L362.64 174.14L361.45 169.36L361.20 169.36ZM370.74 178L368.92 178L368.92 168.20L372.44 168.20L374.38 176.74L374.64 176.74L374.64 168.20L376.46 168.20L376.46 178L372.94 178L371.00 169.46L370.74 169.46L370.74 178ZM384.30 178L380.26 178L380.26 176.38L381.55 176.38L381.55 169.82L380.26 169.82L380.26 168.20L384.30 168.20Q386.27 168.20 387.30 169.20Q388.33 170.20 388.33 172.18L388.33 172.18L388.33 174.02Q388.33 176.00 387.30 177.00Q386.27 178 384.30 178L384.30 178ZM383.40 169.88L383.40 176.32L384.32 176.32Q385.44 176.32 385.96 175.73Q386.48 175.14 386.48 174.08L386.48 174.08L386.48 172.12Q386.48 171.04 385.96 170.46Q385.44 169.88 384.32 169.88L384.32 169.88L383.40 169.88ZM393.96 178L392.11 178L392.11 168.20L396.36 168.20Q397.29 168.20 397.97 168.52Q398.66 168.84 399.04 169.43Q399.42 170.02 399.42 170.82L399.42 170.82L399.42 170.99Q399.42 171.87 399.00 172.41Q398.58 172.96 397.96 173.21L397.96 173.21L397.96 173.46Q398.52 173.49 398.83 173.85Q399.14 174.21 399.14 174.79L399.14 174.79L399.14 178L397.29 178L397.29 175.06Q397.29 174.72 397.11 174.51Q396.94 174.30 396.53 174.30L396.53 174.30L393.96 174.30L393.96 178ZM393.96 169.88L393.96 172.62L396.17 172.62Q396.83 172.62 397.20 172.27Q397.57 171.91 397.57 171.32L397.57 171.32L397.57 171.18Q397.57 170.59 397.20 170.24Q396.84 169.88 396.17 169.88L396.17 169.88L393.96 169.88ZM409.58 178L403.20 178L403.20 168.20L409.50 168.20L409.50 169.88L405.04 169.88L405.04 172.22L409.10 172.22L409.10 173.90L405.04 173.90L405.04 176.32L409.58 176.32L409.58 178ZM414.42 178L412.52 178L415.10 168.20L418.32 168.20L420.89 178L418.99 178L418.46 175.84L414.96 175.84L414.42 178ZM416.58 169.36L415.39 174.14L418.02 174.14L416.83 169.36L416.58 169.36ZM433.91 178.20L433.91 178.20Q432.06 178.20 430.97 177.18Q429.88 176.17 429.88 174.28L429.88 174.28L429.88 171.92Q429.88 170.03 430.97 169.02Q432.06 168.00 433.91 168.00L433.91 168.00Q435.76 168.00 436.85 169.02Q437.94 170.03 437.94 171.92L437.94 171.92L437.94 174.28Q437.94 176.17 436.85 177.18Q435.76 178.20 433.91 178.20ZM433.91 176.54L433.91 176.54Q434.95 176.54 435.52 175.94Q436.10 175.34 436.10 174.33L436.10 174.33L436.10 171.87Q436.10 170.86 435.52 170.26Q434.95 169.66 433.91 169.66L433.91 169.66Q432.89 169.66 432.31 170.26Q431.73 170.86 431.73 171.87L431.73 171.87L431.73 174.33Q431.73 175.34 432.31 175.94Q432.89 176.54 433.91 176.54ZM445.92 178L444.08 178L444.08 169.88L441.22 169.88L441.22 168.20L448.78 168.20L448.78 169.88L445.92 169.88L445.92 178ZM456.40 178L454.55 178L454.55 169.88L451.69 169.88L451.69 168.20L459.25 168.20L459.25 169.88L456.40 169.88L456.40 178ZM466.56 178.20L466.56 178.20Q464.71 178.20 463.62 177.18Q462.53 176.17 462.53 174.28L462.53 174.28L462.53 171.92Q462.53 170.03 463.62 169.02Q464.71 168.00 466.56 168.00L466.56 168.00Q468.41 168.00 469.50 169.02Q470.59 170.03 470.59 171.92L470.59 171.92L470.59 174.28Q470.59 176.17 469.50 177.18Q468.41 178.20 466.56 178.20ZM466.56 176.54L466.56 176.54Q467.60 176.54 468.17 175.94Q468.74 175.34 468.74 174.33L468.74 174.33L468.74 171.87Q468.74 170.86 468.17 170.26Q467.60 169.66 466.56 169.66L466.56 169.66Q465.54 169.66 464.96 170.26Q464.38 170.86 464.38 171.87L464.38 171.87L464.38 174.33Q464.38 175.34 464.96 175.94Q465.54 176.54 466.56 176.54Z" fill="#8c5e1a"></path>
</svg>